<mxfile host="Electron" modified="2024-01-09T05:51:37.456Z" agent="Mozilla/5.0 (X11; Linux x86_64) AppleWebKit/537.36 (KHTML, like Gecko) draw.io/21.6.5 Chrome/114.0.5735.243 Electron/25.3.1 Safari/537.36" etag="Xn1WXPvtL2kTx9dKfiwD" version="21.6.5" type="device">
  <diagram name="Page-1" id="ew7vi9b7o_5ddHdVxSJt">
    <mxGraphModel dx="138" dy="603" grid="0" gridSize="10" guides="1" tooltips="1" connect="1" arrows="1" fold="1" page="1" pageScale="1" pageWidth="850" pageHeight="1100" math="0" shadow="0">
      <root>
        <mxCell id="0" />
        <mxCell id="1" parent="0" />
        <mxCell id="9CKl01Le3w16lZiGQJo1-14" value="" style="group" vertex="1" connectable="0" parent="1">
          <mxGeometry x="1001" y="421" width="459" height="40" as="geometry" />
        </mxCell>
        <mxCell id="AJnUu_ocKBxVkyiGc7EY-19" value="Start" style="strokeWidth=3;html=1;shape=mxgraph.flowchart.start_2;whiteSpace=wrap;labelBackgroundColor=none;fillColor=#ffffff;strokeColor=#666666;fontColor=#666666;fontSize=12;fontStyle=0;rounded=1;arcSize=50;" parent="9CKl01Le3w16lZiGQJo1-14" vertex="1">
          <mxGeometry width="40" height="40" as="geometry" />
        </mxCell>
        <mxCell id="AJnUu_ocKBxVkyiGc7EY-21" value="Create empty array for components" style="rounded=1;whiteSpace=wrap;html=1;absoluteArcSize=1;arcSize=50;strokeWidth=3;strokeColor=#666666;fontFamily=Helvetica;fontSize=12;fontColor=#666666;fillColor=#ffffff;fontStyle=0;labelBackgroundColor=none;" parent="9CKl01Le3w16lZiGQJo1-14" vertex="1">
          <mxGeometry x="65" width="122" height="40" as="geometry" />
        </mxCell>
        <mxCell id="9CKl01Le3w16lZiGQJo1-5" style="edgeStyle=orthogonalEdgeStyle;shape=connector;curved=0;rounded=1;orthogonalLoop=1;jettySize=auto;html=1;labelBackgroundColor=default;strokeColor=#666666;strokeWidth=3;fontFamily=Helvetica;fontSize=12;fontColor=#666666;startArrow=none;startFill=0;endArrow=openThin;endFill=0;" edge="1" parent="9CKl01Le3w16lZiGQJo1-14" source="AJnUu_ocKBxVkyiGc7EY-19" target="AJnUu_ocKBxVkyiGc7EY-21">
          <mxGeometry relative="1" as="geometry" />
        </mxCell>
        <mxCell id="AJnUu_ocKBxVkyiGc7EY-23" value="Get required or&lt;br&gt;optional" style="rounded=1;whiteSpace=wrap;html=1;absoluteArcSize=1;arcSize=50;strokeWidth=3;strokeColor=#666666;fontFamily=Helvetica;fontSize=12;fontColor=#666666;fillColor=#ffffff;fontStyle=0;labelBackgroundColor=none;" parent="9CKl01Le3w16lZiGQJo1-14" vertex="1">
          <mxGeometry x="369" width="110" height="40" as="geometry" />
        </mxCell>
        <mxCell id="9CKl01Le3w16lZiGQJo1-11" style="edgeStyle=orthogonalEdgeStyle;shape=connector;curved=0;rounded=1;orthogonalLoop=1;jettySize=auto;html=1;labelBackgroundColor=default;strokeColor=#666666;strokeWidth=3;fontFamily=Helvetica;fontSize=12;fontColor=#666666;startArrow=none;startFill=0;endArrow=openThin;endFill=0;" edge="1" parent="9CKl01Le3w16lZiGQJo1-14" source="9CKl01Le3w16lZiGQJo1-8" target="AJnUu_ocKBxVkyiGc7EY-23">
          <mxGeometry relative="1" as="geometry" />
        </mxCell>
        <mxCell id="9CKl01Le3w16lZiGQJo1-8" value="Validate &lt;br&gt;IoTOutput" style="rounded=1;whiteSpace=wrap;html=1;absoluteArcSize=1;arcSize=50;strokeWidth=3;strokeColor=#666666;fontFamily=Helvetica;fontSize=12;fontColor=#666666;fillColor=#ffffff;fontStyle=0;labelBackgroundColor=none;" vertex="1" parent="9CKl01Le3w16lZiGQJo1-14">
          <mxGeometry x="223" width="110" height="40" as="geometry" />
        </mxCell>
        <mxCell id="9CKl01Le3w16lZiGQJo1-9" style="edgeStyle=orthogonalEdgeStyle;shape=connector;curved=0;rounded=1;orthogonalLoop=1;jettySize=auto;html=1;labelBackgroundColor=default;strokeColor=#666666;strokeWidth=3;fontFamily=Helvetica;fontSize=12;fontColor=#666666;startArrow=none;startFill=0;endArrow=openThin;endFill=0;" edge="1" parent="9CKl01Le3w16lZiGQJo1-14" source="AJnUu_ocKBxVkyiGc7EY-21" target="9CKl01Le3w16lZiGQJo1-8">
          <mxGeometry relative="1" as="geometry" />
        </mxCell>
        <mxCell id="9CKl01Le3w16lZiGQJo1-15" value="" style="group" vertex="1" connectable="0" parent="1">
          <mxGeometry x="1055" y="478" width="349" height="40" as="geometry" />
        </mxCell>
        <mxCell id="AJnUu_ocKBxVkyiGc7EY-26" value="Get count, if none &lt;br&gt;set to null" style="rounded=1;whiteSpace=wrap;html=1;absoluteArcSize=1;arcSize=50;strokeWidth=3;strokeColor=#666666;fontFamily=Helvetica;fontSize=12;fontColor=#666666;fillColor=#ffffff;fontStyle=0;labelBackgroundColor=none;" parent="9CKl01Le3w16lZiGQJo1-15" vertex="1">
          <mxGeometry x="63.5" width="130" height="40" as="geometry" />
        </mxCell>
        <mxCell id="9CKl01Le3w16lZiGQJo1-7" style="edgeStyle=orthogonalEdgeStyle;shape=connector;curved=0;rounded=1;orthogonalLoop=1;jettySize=auto;html=1;labelBackgroundColor=default;strokeColor=#666666;strokeWidth=3;fontFamily=Helvetica;fontSize=12;fontColor=#666666;startArrow=none;startFill=0;endArrow=openThin;endFill=0;" edge="1" parent="9CKl01Le3w16lZiGQJo1-15" source="AJnUu_ocKBxVkyiGc7EY-25" target="AJnUu_ocKBxVkyiGc7EY-26">
          <mxGeometry relative="1" as="geometry" />
        </mxCell>
        <mxCell id="AJnUu_ocKBxVkyiGc7EY-25" value="Get timeout, if none &lt;br&gt;set to null" style="rounded=1;whiteSpace=wrap;html=1;absoluteArcSize=1;arcSize=50;strokeWidth=3;strokeColor=#666666;fontFamily=Helvetica;fontSize=12;fontColor=#666666;fillColor=#ffffff;fontStyle=0;labelBackgroundColor=none;" parent="9CKl01Le3w16lZiGQJo1-15" vertex="1">
          <mxGeometry x="219" width="130" height="40" as="geometry" />
        </mxCell>
        <mxCell id="9CKl01Le3w16lZiGQJo1-3" value="End" style="strokeWidth=3;html=1;shape=mxgraph.flowchart.start_2;whiteSpace=wrap;labelBackgroundColor=none;fillColor=#ffffff;strokeColor=#666666;fontColor=#666666;fontSize=12;fontStyle=0;rounded=1;arcSize=50;" vertex="1" parent="9CKl01Le3w16lZiGQJo1-15">
          <mxGeometry width="40" height="40" as="geometry" />
        </mxCell>
        <mxCell id="9CKl01Le3w16lZiGQJo1-6" style="edgeStyle=orthogonalEdgeStyle;shape=connector;curved=0;rounded=1;orthogonalLoop=1;jettySize=auto;html=1;labelBackgroundColor=default;strokeColor=#666666;strokeWidth=3;fontFamily=Helvetica;fontSize=12;fontColor=#666666;startArrow=none;startFill=0;endArrow=openThin;endFill=0;" edge="1" parent="9CKl01Le3w16lZiGQJo1-15" source="AJnUu_ocKBxVkyiGc7EY-26" target="9CKl01Le3w16lZiGQJo1-3">
          <mxGeometry relative="1" as="geometry" />
        </mxCell>
        <mxCell id="9CKl01Le3w16lZiGQJo1-16" style="edgeStyle=orthogonalEdgeStyle;shape=connector;curved=0;rounded=1;orthogonalLoop=1;jettySize=auto;html=1;entryX=1;entryY=0.5;entryDx=0;entryDy=0;labelBackgroundColor=default;strokeColor=#666666;strokeWidth=3;fontFamily=Helvetica;fontSize=12;fontColor=#666666;startArrow=none;startFill=0;endArrow=openThin;endFill=0;" edge="1" parent="1" source="AJnUu_ocKBxVkyiGc7EY-23" target="AJnUu_ocKBxVkyiGc7EY-25">
          <mxGeometry relative="1" as="geometry" />
        </mxCell>
      </root>
    </mxGraphModel>
  </diagram>
</mxfile>
